<svg xmlns='http://www.w3.org/2000/svg' width='1024' height='1024' viewBox='0 0 1024 1024'><defs>
  <linearGradient id="bg" x1="0" y1="0" x2="0" y2="1"><stop offset="0" stop-color="#1b1d21"/><stop offset="1" stop-color="#0b0c0e"/></linearGradient>
  <linearGradient id="ember" gradientUnits="userSpaceOnUse" x1="512" y1="300" x2="512" y2="720"><stop offset="0" stop-color="#ffbf72"/><stop offset="0.5" stop-color="#ff7a3c"/><stop offset="1" stop-color="#e14f27"/></linearGradient>
  <linearGradient id="core" gradientUnits="userSpaceOnUse" x1="512" y1="300" x2="512" y2="720"><stop offset="0" stop-color="#ffe6cf"/><stop offset="1" stop-color="#ffb184"/></linearGradient>
  <clipPath id="tile"><rect width="1024" height="1024" rx="228"/></clipPath>
  <filter id="g" x="-60%" y="-60%" width="220%" height="220%"><feGaussianBlur stdDeviation="16"/></filter>
  <filter id="gs" x="-80%" y="-80%" width="260%" height="260%"><feGaussianBlur stdDeviation="7"/></filter>
</defs><g clip-path='url(#tile)'><rect width="1024" height="1024" fill="url(#bg)"/><path d="M0 0 L470 0 L406 452 L452 1024 L0 1024 Z" fill="#08090b"/>
   <g fill="none" stroke="url(#ember)" stroke-width="120" stroke-linecap="round" stroke-linejoin="round">
     <g filter="url(#g)" opacity="0.4"><path d="M402 316 L402 706"/><path d="M402 452 C424 372 524 348 632 398"/></g>
     <path d="M402 316 L402 706"/><path d="M402 452 C424 372 524 348 632 398"/></g>
   <g stroke="url(#core)" stroke-width="26" stroke-linecap="round" fill="none" filter="url(#gs)" opacity="0.85"><path d="M402 340 L402 690"/></g><rect x="4" y="4" width="1016" height="1016" rx="224" fill="none" stroke="#ffffff" stroke-opacity="0.06" stroke-width="3"/></g></svg>
